# xmcd
# 
# Track frame offsets:
#     150
#     22132
#     42387
#     63782
#     85332
#     109077
#     141142
#     157385
#     181260
#     206340
#     231362
#     253605
# 
# Disc length: 3712
# 
# Revision: 24
# Processed by: cddbd v1.5.2PL0 Copyright (c) Steve Scherf et al.
# Submitted via: BonkEnc v1.0.5
# 
DISCID=a80e7e0c
DTITLE=GLAY - REVIEW
DYEAR=1997
DGENRE=Pop
TTITLE0=グロリアス
TTITLE1=彼女の "Modern…"
TTITLE2=BELOVED
TTITLE3=More than Love
TTITLE4=千ノナイフガ胸ヲ刺ス
TTITLE5=ずっと２人で…
TTITLE6=口唇
TTITLE7=RHAPSODY
TTITLE8=HOWEVER
TTITLE9=Freeze My Love
TTITLE10=KISSIN' NOISE
TTITLE11=軌跡の果て
EXTD=YEAR: 1997
EXTT0=
EXTT1=
EXTT2=
EXTT3=
EXTT4=
EXTT5=
EXTT6=
EXTT7=
EXTT8=
EXTT9=
EXTT10=
EXTT11=
PLAYORDER=
